<?xml version="1.0" encoding="UTF-8"?>
<svg width="40px" height="40px" viewBox="0 0 40 40" version="1.1" xmlns="http://www.w3.org/2000/svg" xmlns:xlink="http://www.w3.org/1999/xlink">
    <!-- Generator: Sketch 63.1 (92452) - https://sketch.com -->
    <title>通用后台</title>
    <desc>Created with Sketch.</desc>
    <g id="通用后台" stroke="none" stroke-width="1" fill="none" fill-rule="evenodd">
        <g>
            <g>
                <rect id="矩形" x="0" y="0" width="40" height="40"></rect>
                <path d="M28.1757039,30.9489281 C27.5879062,29.3705102 27.1191862,27.7766543 26.5427744,26.2075927 C26.3141073,25.5844591 26.0863891,24.9529048 25.8757497,24.3246252 C25.0322434,21.8101035 24.0933801,19.2852897 23.2071766,16.8156785 C22.7697679,15.5974805 22.305792,14.3376466 21.8498811,13.095122 C21.6079304,12.4354986 21.4091514,11.8086225 21.1596102,11.2346098 C20.9167107,10.6760351 20.503497,10.1553537 20.1016692,9.7375922 C19.3312225,8.93621996 18.1243158,8.19519625 16.6512635,8.0585934 C14.9950877,7.90514909 13.0789337,8.10724647 11.4289253,8.0585934 C11.2581366,8.27285404 11.4526459,8.52079758 11.520487,8.7163455 C11.9133009,9.84706161 12.2724316,10.9483052 12.6941847,12.0509522 C12.8635502,12.4944437 13.0751384,12.935596 13.199909,13.3669242 C13.2819824,13.6494863 13.3327446,13.9114644 13.4299993,14.1837345 C14.450936,17.0402312 15.5103002,19.9205866 16.5127349,22.7593062 C16.8823026,23.8072185 17.2485495,24.8574699 17.6166939,25.8894764 C18.0042894,26.9762177 18.3093369,28.0638945 18.7671454,28.9747362 C19.2178378,29.8724789 19.949857,30.6471855 20.8374837,31.1528968 C21.7730262,31.6852736 22.7911165,32.059528 24.265592,31.9921623 C25.2685011,31.9458483 26.3985528,31.9921623 27.4403638,31.9921623 C27.7653367,31.9921623 28.1187744,32.0291199 28.4295149,31.9014056 C28.4446961,31.5697226 28.2886142,31.2506707 28.1757039,30.9489281 Z M39.7451603,30.9489281 C39.1573626,29.3705102 38.6886425,27.7766543 38.1122308,26.2075927 C37.8835637,25.5844591 37.6558455,24.9529048 37.4452061,24.3246252 C36.6016998,21.8101035 35.6628365,19.2852897 34.776633,16.8156785 C34.3392242,15.5974805 33.8752483,14.3376466 33.4193374,13.095122 C33.1773868,12.4354986 32.9786078,11.8086225 32.7290665,11.2346098 C32.4861671,10.6760351 32.0729534,10.1553537 31.6711256,9.7375922 C30.9006789,8.93621996 29.6937722,8.19519625 28.2207199,8.0585934 C26.5645441,7.90514909 24.64839,8.10724647 22.9983816,8.0585934 C22.827593,8.27285404 23.0221023,8.52079758 23.0899433,8.7163455 C23.4827573,9.84706161 23.8418879,10.9483052 24.2636411,12.0509522 C24.4330065,12.4944437 24.6445947,12.935596 24.7693653,13.3669242 C24.8514388,13.6494863 24.902201,13.9114644 24.9994556,14.1837345 C26.0203924,17.0402312 27.0797566,19.9205866 28.0821913,22.7593062 C28.451759,23.8072185 28.8180058,24.8574699 29.1861503,25.8894764 C29.5737457,26.9762177 29.8787933,28.0638945 30.3366018,28.9747362 C30.7872941,29.8724789 31.5193134,30.6471855 32.4069401,31.1528968 C33.3424825,31.6852736 34.3605728,32.059528 35.8350484,31.9921623 C36.8379575,31.9458483 37.9680092,31.9921623 39.0098201,31.9921623 C39.334793,31.9921623 39.6882307,32.0291199 39.9989712,31.9014056 C40.0141524,31.5697226 39.8580706,31.2506707 39.7451603,30.9489281 Z M16.815199,30.9489281 C16.2274013,29.3705102 15.7586812,27.7766543 15.1822694,26.2075927 C14.9536024,25.5844591 14.7258841,24.9529048 14.5152448,24.3246252 C13.6717385,21.8101035 12.7328752,19.2852897 11.8466717,16.8156785 C11.4092629,15.5974805 10.945287,14.3376466 10.4893761,13.095122 C10.2474255,12.4354986 10.0486464,11.8086225 9.79910521,11.2346098 C9.55620576,10.6760351 9.14299204,10.1553537 8.74116423,9.7375922 C7.97071753,8.93621996 6.76381088,8.19519625 5.29075854,8.0585934 C3.63458278,7.90514909 1.7184287,8.10724647 0.0684203121,8.0585934 C-0.102368365,8.27285404 0.0921409618,8.52079758 0.15998202,8.7163455 C0.552795978,9.84706161 0.911926613,10.9483052 1.33367976,12.0509522 C1.5030452,12.4944437 1.7146334,12.935596 1.83940401,13.3669242 C1.92147746,13.6494863 1.97223965,13.9114644 2.06949432,14.1837345 C3.09043108,17.0402312 4.14979529,19.9205866 5.15222994,22.7593062 C5.52179766,23.8072185 5.8880445,24.8574699 6.25618898,25.8894764 C6.64378439,26.9762177 6.94883195,28.0638945 7.40664049,28.9747362 C7.85733283,29.8724789 8.58935208,30.6471855 9.47697879,31.1528968 C10.4125212,31.6852736 11.4306115,32.059528 12.9050871,31.9921623 C13.9079961,31.9458483 15.0380479,31.9921623 16.0798588,31.9921623 C16.4048317,31.9921623 16.7582694,32.0291199 17.0690099,31.9014056 C17.0841911,31.5697226 16.9281093,31.2506707 16.815199,30.9489281 Z" id="形状" fill="#FFFFFF" fill-rule="nonzero"></path>
            </g>
        </g>
    </g>
</svg>